<svg xmlns="http://www.w3.org/2000/svg" xmlns:xlink="http://www.w3.org/1999/xlink" width="130.031" height="101.083"><defs><rect id="a" width="130.031" height="101.083"/></defs><clipPath id="b"><use xlink:href="#a" overflow="visible"/></clipPath><line clip-path="url(#b)" stroke="#738BC0" stroke-miterlimit="10" x1="-.5" y1=".084" x2="-53" y2="122.084" fill="none"/><line stroke="#738BC0" stroke-miterlimit="10" x1="14" y1=".084" x2="-38.5" y2="122.084" fill="none"/><line stroke="#738BC0" stroke-miterlimit="10" x1="28.5" y1=".084" x2="-24" y2="122.084" fill="none"/><line stroke="#738BC0" stroke-miterlimit="10" x1="43" y1=".084" x2="-9.5" y2="122.084" fill="none"/><line stroke="#738BC0" stroke-miterlimit="10" x1="57.5" y1=".084" x2="5" y2="122.084" fill="none"/><line stroke="#738BC0" stroke-miterlimit="10" x1="72" y1=".084" x2="19.5" y2="122.084" fill="none"/><line stroke="#738BC0" stroke-miterlimit="10" x1="86.5" y1=".084" x2="34" y2="122.084" fill="none"/><line stroke="#738BC0" stroke-miterlimit="10" x1="101" y1=".084" x2="48.5" y2="122.084" fill="none"/><line stroke="#738BC0" stroke-miterlimit="10" x1="115.5" y1=".084" x2="63" y2="122.084" fill="none"/><line stroke="#738BC0" stroke-miterlimit="10" x1="130" y1=".084" x2="77.5" y2="122.084" fill="none"/><line stroke="#738BC0" stroke-miterlimit="10" x1="144.5" y1=".084" x2="92" y2="122.084" fill="none"/><line stroke="#738BC0" stroke-miterlimit="10" x1="159" y1=".084" x2="106.5" y2="122.084" fill="none"/><line stroke="#738BC0" stroke-miterlimit="10" x1="173.5" y1=".084" x2="121" y2="122.084" fill="none"/><line stroke="#738BC0" stroke-miterlimit="10" x1="188" y1=".084" x2="135.5" y2="122.084" fill="none"/></svg>