<svg xmlns="http://www.w3.org/2000/svg" width="148" height="54"><circle fill="#fff" cx="27" cy="27" r="27"/><g fill="#fff"><path d="M63.487 15.114h3.131v21.633h10.366v2.628h-13.497v-24.261zM99.809 26.992c0 8.352-5.076 12.778-11.268 12.778-6.406 0-10.906-4.967-10.906-12.31 0-7.703 4.787-12.743 11.267-12.743 6.622.001 10.907 5.076 10.907 12.275zm-18.827.397c0 5.184 2.808 9.826 7.738 9.826 4.968 0 7.775-4.571 7.775-10.078 0-4.823-2.52-9.863-7.738-9.863-5.183-.001-7.775 4.788-7.775 10.115zM122.344 38.295c-1.404.504-4.176 1.332-7.451 1.332-3.672 0-6.695-.936-9.07-3.203-2.088-2.017-3.384-5.256-3.384-9.035.036-7.235 5.003-12.526 13.138-12.526 2.809 0 5.004.611 6.048 1.115l-.756 2.556c-1.296-.575-2.915-1.043-5.363-1.043-5.903 0-9.755 3.671-9.755 9.754 0 6.155 3.707 9.791 9.359 9.791 2.051 0 3.455-.288 4.175-.647v-7.235h-4.931v-2.52h7.99v11.661zM147.867 26.992c0 8.352-5.075 12.778-11.267 12.778-6.407 0-10.906-4.967-10.906-12.31 0-7.703 4.787-12.743 11.267-12.743 6.623.001 10.906 5.076 10.906 12.275zm-18.825.397c0 5.184 2.808 9.826 7.739 9.826 4.967 0 7.774-4.571 7.774-10.078 0-4.823-2.52-9.863-7.739-9.863-5.183-.001-7.774 4.788-7.774 10.115z"/></g></svg>