<?xml version="1.0" encoding="utf-8"?>
<!-- Generator: Adobe Illustrator 16.0.0, SVG Export Plug-In . SVG Version: 6.00 Build 0)  -->
<!DOCTYPE svg PUBLIC "-//W3C//DTD SVG 1.1//EN" "http://www.w3.org/Graphics/SVG/1.1/DTD/svg11.dtd">
<svg version="1.1" id="Layer_1" xmlns="http://www.w3.org/2000/svg" xmlns:xlink="http://www.w3.org/1999/xlink" x="0px" y="0px"
	 width="335.957px" height="91.367px" viewBox="0 0 335.957 91.367" enable-background="new 0 0 335.957 91.367"
	 xml:space="preserve">
<g>
	<path fill="#FFFFFF" d="M177.93,88.979c-0.431,0.164-0.804,0.299-1.114,0.41c-0.307,0.105-0.604,0.2-0.891,0.288
		c-0.282,0.089-0.695,0.194-1.234,0.328c-0.919,0.213-1.835,0.379-2.746,0.491c-0.912,0.104-1.874,0.162-2.889,0.162
		c-2.033,0-3.916-0.369-5.645-1.115c-1.727-0.742-3.109-1.896-4.147-3.461c-1.038-1.562-1.556-3.48-1.556-5.756
		c0-1.467,0.269-2.907,0.805-4.323c0.534-1.414,1.353-2.548,2.45-3.394c0.91-0.705,1.829-1.245,2.758-1.615
		c0.938-0.37,1.841-0.621,2.73-0.748c0.887-0.123,1.869-0.186,2.938-0.186c1.767,0,3.223,0.136,4.373,0.396
		c1.146,0.268,2.407,0.617,3.776,1.05v4.75c-0.908-0.534-1.865-0.975-2.879-1.333c-1.014-0.355-2.279-0.538-3.794-0.538
		c-1.745,0-3.143,0.332-4.19,0.995c-1.048,0.657-1.777,1.447-2.187,2.368c-0.41,0.914-0.614,1.801-0.614,2.662
		c0,1.011,0.237,1.948,0.71,2.8s1.186,1.537,2.143,2.057c0.954,0.513,2.107,0.771,3.458,0.771c0.774,0,1.594-0.102,2.459-0.305
		v-2.357h-2.718v-4.041h8.001v9.643H177.93z"/>
	<rect x="190.826" y="70.341" fill="#FFFFFF" width="6.051" height="20.06"/>
	<polygon fill="#FFFFFF" points="225.074,90.4 209.951,90.4 209.951,70.341 224.83,70.341 224.83,74.361 215.998,74.361 
		215.998,78.035 224.425,78.035 224.425,82.074 215.998,82.074 215.998,86.359 225.074,86.359 	"/>
	<polygon fill="#FFFFFF" points="259.192,90.4 253.809,90.4 243.399,79.225 243.399,90.4 237.407,90.4 237.407,70.341 
		242.776,70.341 253.156,81.454 253.156,70.341 259.192,70.341 	"/>
	<rect x="272.248" y="70.341" fill="#FFFFFF" width="6.055" height="20.06"/>
	<path fill="#FFFFFF" d="M309.44,88.895c-0.833,0.434-1.683,0.783-2.549,1.043c-0.87,0.256-1.743,0.447-2.627,0.56
		c-0.884,0.104-1.798,0.165-2.745,0.165c-1.746,0-3.307-0.241-4.697-0.725c-1.386-0.482-2.584-1.195-3.605-2.138
		c-1.016-0.942-1.773-2.04-2.283-3.299c-0.51-1.262-0.764-2.644-0.764-4.149c0-1.724,0.301-3.236,0.9-4.537
		c0.6-1.297,1.436-2.375,2.512-3.232c1.075-0.865,2.301-1.491,3.674-1.904c1.377-0.41,2.826-0.617,4.352-0.617
		c2.277,0,4.857,0.51,7.745,1.521v5.327c-0.993-0.616-1.978-1.13-2.946-1.539c-0.97-0.411-2.111-0.618-3.424-0.618
		c-1.167,0-2.258,0.23-3.27,0.693c-1.015,0.464-1.828,1.127-2.446,1.986s-0.925,1.862-0.925,3.01c0,1.013,0.267,1.941,0.808,2.787
		c0.543,0.847,1.293,1.514,2.25,2.008c0.959,0.5,2.044,0.753,3.251,0.753c0.975,0,1.896-0.121,2.766-0.357
		c0.869-0.235,1.6-0.504,2.192-0.789c0.593-0.292,1.202-0.63,1.832-1.03V88.895L309.44,88.895z"/>
	<path fill="#FFFFFF" d="M335.957,84.566c0,1.252-0.322,2.336-0.967,3.261c-0.639,0.911-1.535,1.616-2.683,2.1
		c-1.149,0.495-2.466,0.735-3.952,0.735c-0.416,0-0.923-0.028-1.529-0.08c-0.597-0.055-1.398-0.202-2.402-0.443
		c-0.996-0.24-2.037-0.598-3.116-1.072v-4.922c1.012,0.629,2.006,1.152,2.989,1.563c0.976,0.416,2.029,0.625,3.146,0.625
		c1.033,0,1.701-0.174,2.004-0.517c0.305-0.34,0.458-0.659,0.458-0.963c0-0.539-0.263-0.99-0.786-1.363
		c-0.519-0.375-1.279-0.756-2.271-1.151c-1.098-0.465-2.062-0.969-2.893-1.513c-0.832-0.544-1.508-1.229-2.037-2.051
		c-0.525-0.817-0.789-1.786-0.789-2.911c0-1.078,0.264-2.056,0.803-2.927c0.525-0.877,1.334-1.572,2.427-2.093
		c1.09-0.521,2.421-0.784,3.995-0.784c1.119,0,2.152,0.11,3.102,0.328c0.957,0.217,1.738,0.459,2.355,0.729
		c0.619,0.271,1.043,0.485,1.275,0.635v4.705c-0.821-0.589-1.735-1.114-2.744-1.577c-1.01-0.464-2.084-0.693-3.235-0.693
		c-0.753,0-1.298,0.145-1.634,0.434c-0.34,0.29-0.51,0.646-0.51,1.072c0,0.392,0.17,0.738,0.51,1.025
		c0.336,0.286,0.941,0.639,1.808,1.059c1.543,0.723,2.78,1.373,3.704,1.953c0.932,0.578,1.65,1.248,2.182,2.002
		C335.691,82.492,335.957,83.438,335.957,84.566"/>
	<path fill="#FFFFFF" d="M0,49.68C0,26.648,18.665,7.984,41.689,7.984c23.029,0,41.687,18.665,41.687,41.696
		c0,23.021-18.658,41.688-41.687,41.688c-2.952,0-5.827-0.312-8.604-0.895c-0.604-2.127-1.579-4.316-2.889-6.516l42.018-47.741
		L15.776,69.092c-1.486-1.035-3.041-2.029-4.673-2.97c-3.102-1.793-6.246-3.267-9.344-4.429C0.611,57.889,0,53.852,0,49.68"/>
	<path fill="#FFFFFF" d="M285.428,26.63c-5.384,0-7.817,2.61-7.817,8.685v25.19h-10.598V32.278c0-12.765,8.6-15.897,16.066-15.897
		l0.315,0.01c1.504-0.06,3.214-0.07,5.162-0.01c3.653,0.116,7.655,0.872,10.794,3.098l-8.26,8.258
		c-1.266-0.75-2.893-1.106-4.877-1.106l-0.395-0.003L285.428,26.63z M319.369,16.368c7.467,0.239,16.407,3.13,16.407,15.898v28.239
		h-10.597v-25.2c0-6.08-2.771-8.689-8.156-8.689l-0.465-0.009l-0.32,0.009c-5.388,0-7.82,2.61-7.82,8.689v25.201h-10.592V32.267
		c0-12.769,8.598-15.898,16.064-15.898l0.25,0.012C315.653,16.316,317.388,16.31,319.369,16.368 M219.392,28.676l-9.135,4.181
		c-1.361-4.266-5.041-6.916-9.133-6.916c-7.43,0-11.184,6.322-11.184,13.061c0,6.747,3.329,13.062,10.587,13.062
		c6.229,0,8.878-4.44,10.496-8.366l8.878,4.694c-2.902,6.324-7.852,13.232-19.549,13.232c-13.229,0-21.338-9.732-21.338-22.623
		c0-12.89,8.109-22.621,22.109-22.621C211.625,16.38,216.746,22.186,219.392,28.676 M242.273,16.38c14,0,22.107,9.731,22.107,22.621
		c0,12.892-8.107,22.623-22.107,22.623c-14.001,0-22.111-9.731-22.111-22.623C220.162,26.112,228.272,16.38,242.273,16.38
		 M242.273,25.941c-7.43,0-11.186,6.322-11.186,13.061c0,6.747,3.756,13.062,11.186,13.062c7.425,0,11.184-6.315,11.184-13.062
		C253.457,32.263,249.698,25.941,242.273,25.941 M164.899,17.505h10.369v43.001h-10.369V17.505z M164.899,0h10.369v10.541h-10.369V0
		z M141.141,26.63l-0.393-0.003l-0.394,0.003c-5.386,0-8.156,2.61-8.156,8.685v0.836v5.702v3.878
		c0,12.764-8.602,15.66-16.068,15.893c-1.948,0.06-3.662,0.054-5.16-0.013l-0.318,0.013c-7.47,0-16.068-3.129-16.068-15.893V17.505
		h10.599v25.19c0,6.075,2.429,8.681,7.814,8.681l0.393,0.008l0.391-0.008c5.384,0,7.82-2.606,7.82-8.681v-0.842v-5.702v-3.874
		c0-12.765,8.944-15.661,16.411-15.897c1.944-0.06,5.472,0,5.472,0c7.47,0,16.072,3.133,16.072,15.897v28.228h-10.598v-25.19
		C148.957,29.24,146.526,26.63,141.141,26.63"/>
	<polygon fill="#FFFFFF" points="118.146,91.264 112.11,91.264 112.11,83.43 103.005,83.43 103.005,91.264 96.953,91.264 
		96.953,71.2 103.005,71.2 103.005,78.566 112.11,78.566 112.11,71.2 118.146,71.2 	"/>
	<polygon fill="#FFFFFF" points="150.697,71.2 142.836,82.068 142.836,91.264 136.787,91.264 136.787,82.184 128.781,71.2 
		135.061,71.2 139.665,77.507 144.282,71.2 	"/>
</g>
</svg>
